<svg width="123" height="40" viewBox="0 0 123 40" fill="none" xmlns="http://www.w3.org/2000/svg">
<g clip-path="url(#clip0_413_657)">
<path fill-rule="evenodd" clip-rule="evenodd" d="M15.7275 33.9334L25.0839 28.0129L15.7475 10.5068L6.7771 28.0129L15.7275 33.9334ZM11.1522 29.5598L11.7241 27.5509H19.6937L20.3028 29.5598H11.1522ZM12.1702 25.8806L12.7793 23.8717H18.6242L19.2247 25.8806H12.1702ZM12.582 20.0893H19.0817L20.0997 22.0035L11.5583 22.0982L12.582 20.0893Z" fill="#FCFCFD"/>
<path fill-rule="evenodd" clip-rule="evenodd" d="M0 0V30.2138L15.7275 40L31.4551 30.2138V0H0ZM2.85955 2.86985H14.3378L2.85955 24.83V2.86985ZM15.7275 36.6652L3.8032 28.8047L15.7075 5.5589L28.1037 28.8047L15.7275 36.6652ZM28.5955 23.7308L17.123 2.86985H28.5955V23.7308Z" fill="#FCFCFD"/>
</g>
<path d="M38.1274 29.8418V11.3021H43.3128C44.5328 11.3021 45.5919 11.5391 46.49 12.0132C47.3882 12.4703 48.0829 13.1222 48.5743 13.9687C49.0827 14.8153 49.3369 15.8143 49.3369 16.9656V24.1529C49.3369 25.2873 49.0827 26.2862 48.5743 27.1497C48.0829 28.0132 47.3882 28.682 46.49 29.156C45.5919 29.6132 44.5328 29.8418 43.3128 29.8418H38.1274ZM40.8726 27.3529H43.3128C44.3295 27.3529 45.1259 27.0735 45.7021 26.5148C46.2952 25.9391 46.5917 25.1518 46.5917 24.1529V16.9656C46.5917 15.9836 46.2952 15.2132 45.7021 14.6545C45.1259 14.0788 44.3295 13.791 43.3128 13.791H40.8726V27.3529Z" fill="#FCFCFD"/>
<path d="M51.8434 29.8418L56.5712 11.3021H60.1805L64.9083 29.8418H62.1378L61.0194 25.1434H55.7578L54.6394 29.8418H51.8434ZM56.2661 22.883H60.4856L59.2147 17.5243C58.9944 16.5762 58.808 15.755 58.6555 15.0608C58.5199 14.3497 58.4267 13.8672 58.3759 13.6132C58.325 13.8672 58.2318 14.3497 58.0963 15.0608C57.9607 15.755 57.7743 16.5677 57.5371 17.4989L56.2661 22.883Z" fill="#FCFCFD"/>
<path d="M73.0831 30.0957C71.4055 30.0957 70.0668 29.6132 69.067 28.6481C68.0672 27.6661 67.5673 26.337 67.5673 24.6608V15.8735H70.3125V24.6608C70.3125 25.6259 70.5582 26.3793 71.0496 26.9211C71.541 27.446 72.2189 27.7084 73.0831 27.7084C73.9643 27.7084 74.6505 27.446 75.142 26.9211C75.6503 26.3793 75.9045 25.6259 75.9045 24.6608V15.8735H78.6497V24.6608C78.6497 26.337 78.1413 27.6661 77.1246 28.6481C76.1248 29.6132 74.7776 30.0957 73.0831 30.0957Z" fill="#FCFCFD"/>
<path d="M86.8498 30.0957C85.4434 30.0957 84.3165 29.6217 83.4692 28.6735C82.6219 27.7254 82.1983 26.4471 82.1983 24.8386V20.9021C82.1983 19.2767 82.6219 17.9899 83.4692 17.0418C84.3165 16.0936 85.4434 15.6195 86.8498 15.6195C88.0021 15.6195 88.9172 15.9412 89.595 16.5846C90.2728 17.2111 90.6117 18.0746 90.6117 19.1751L90.0271 18.5402H90.6626L90.5863 15.2894V11.3021H93.3315V29.8418H90.6117V27.1751H90.0271L90.6117 26.5402C90.6117 27.6407 90.2728 28.5127 89.595 29.156C88.9172 29.7825 88.0021 30.0957 86.8498 30.0957ZM87.7903 27.7084C88.6545 27.7084 89.3324 27.446 89.8238 26.9211C90.3321 26.3793 90.5863 25.6344 90.5863 24.6862V21.0291C90.5863 20.0809 90.3321 19.3444 89.8238 18.8195C89.3324 18.2777 88.6545 18.0068 87.7903 18.0068C86.8922 18.0068 86.189 18.2693 85.6806 18.7941C85.1722 19.3021 84.9181 20.0471 84.9181 21.0291V24.6862C84.9181 25.6682 85.1722 26.4217 85.6806 26.9465C86.189 27.4545 86.8922 27.7084 87.7903 27.7084Z" fill="#FCFCFD"/>
<path d="M97.0072 29.8418V27.3529H101.913V18.3624H97.6427V15.8735H104.582V27.3529H109.081V29.8418H97.0072ZM102.981 13.4608C102.387 13.4608 101.913 13.3084 101.557 13.0037C101.201 12.682 101.023 12.2587 101.023 11.7338C101.023 11.192 101.201 10.7687 101.557 10.464C101.913 10.1423 102.387 9.98145 102.981 9.98145C103.574 9.98145 104.048 10.1423 104.404 10.464C104.76 10.7687 104.938 11.192 104.938 11.7338C104.938 12.2587 104.76 12.682 104.404 13.0037C104.048 13.3084 103.574 13.4608 102.981 13.4608Z" fill="#FCFCFD"/>
<path d="M118.832 29.8418C117.561 29.8418 116.569 29.4947 115.858 28.8005C115.146 28.1063 114.79 27.1412 114.79 25.9053V18.3624H110.926V15.8735H114.79V11.937H117.535V15.8735H123V18.3624H117.535V25.9053C117.535 26.8703 118.001 27.3529 118.933 27.3529H122.746V29.8418H118.832Z" fill="#FCFCFD"/>
<defs>
<clipPath id="clip0_413_657">
<rect width="31.4551" height="40" fill="white"/>
</clipPath>
</defs>
</svg>
