<svg width="182" height="32" viewBox="0 0 182 32" fill="none" xmlns="http://www.w3.org/2000/svg">
<g clip-path="url(#clip0_247_156)">
<path d="M0.333252 13.0447L2.89184 11.5507V3.70914C2.89262 3.59312 2.92333 3.4793 2.98096 3.37892C3.03859 3.27853 3.12115 3.19504 3.22049 3.13668C3.31983 3.07832 3.43252 3.0471 3.54746 3.04611C3.66239 3.04511 3.7756 3.07437 3.87592 3.13101L10.6149 7.05874V25.0027L3.88576 28.9126C3.78568 28.9698 3.67252 28.9995 3.55752 28.9989C3.44253 28.9983 3.32969 28.9673 3.23021 28.9091C3.13073 28.8508 3.04807 28.7674 2.99044 28.6669C2.93281 28.5664 2.90222 28.4525 2.90168 28.3364V20.4989L0.343093 19.0049V29.3358C0.342817 29.8026 0.464173 30.2614 0.694986 30.6659C0.925799 31.0705 1.25795 31.4067 1.65812 31.6408C2.05829 31.8748 2.51241 31.9986 2.97491 31.9995C3.43741 32.0005 3.89203 31.8787 4.29317 31.6463L11.8489 27.2596C12.2514 27.026 12.5857 26.6894 12.8183 26.2838C13.0508 25.8781 13.1733 25.4178 13.1734 24.9491V7.0945C13.1737 6.62774 13.0523 6.16911 12.8216 5.76462C12.5908 5.36013 12.2588 5.02399 11.8587 4.78991L4.29317 0.361529C3.89221 0.126922 3.43709 0.00311071 2.97364 0.00256529C2.5102 0.00201986 2.05479 0.12476 1.6533 0.358422C1.2518 0.592085 0.918392 0.928419 0.686649 1.33355C0.454907 1.73868 0.333016 2.1983 0.333252 2.66612V13.0447Z" fill="url(#paint0_linear_247_156)"/>
<path d="M0.827259 16.3129L13.1774 23.5028L21.0638 16.0248L13.1774 8.54683L0.827259 15.7367C0.777215 15.7661 0.720363 15.7817 0.66246 15.7818C0.604557 15.7819 0.547658 15.7665 0.49752 15.7373C0.447381 15.708 0.405785 15.666 0.376939 15.6153C0.348094 15.5646 0.333024 15.5071 0.333255 15.4487V13.0448L11.5123 6.53032C11.9959 6.24754 12.5559 6.1271 13.1116 6.18637C13.6673 6.24565 14.19 6.48157 14.6043 6.86011L22.4611 14.048C22.734 14.2976 22.9521 14.6021 23.1013 14.9418C23.2505 15.2816 23.3276 15.6492 23.3276 16.0209C23.3276 16.3925 23.2505 16.7601 23.1013 17.0999C22.9521 17.4396 22.734 17.7441 22.4611 17.9937L14.6043 25.1875C14.1906 25.5663 13.6685 25.8027 13.1132 25.8626C12.5579 25.9226 11.998 25.8031 11.5143 25.5213L0.335222 19.0049V16.595C0.336214 16.5374 0.352072 16.481 0.381234 16.4314C0.410395 16.3818 0.451854 16.3408 0.501521 16.3123C0.551189 16.2838 0.607352 16.2689 0.664472 16.269C0.721592 16.2691 0.777698 16.2842 0.827259 16.3129Z" fill="url(#paint1_linear_247_156)"/>
<path d="M39.1018 6.17871H32.3176V26.02H39.0979C44.4572 26.02 48.8166 21.5579 48.8166 16.0725C48.8166 10.5872 44.4611 6.17871 39.1018 6.17871ZM34.8211 8.56277H38.6629C43.107 8.56277 46.2088 11.6501 46.2088 16.0706C46.2088 20.5228 43.107 23.632 38.6629 23.632H34.8211V8.56277Z" fill="white"/>
<path d="M57.7658 12.8004C53.9791 12.8004 51.1213 15.7089 51.1213 19.5552C51.126 20.4495 51.3051 21.3342 51.6484 22.1587C51.9918 22.9832 52.4927 23.7314 53.1225 24.3605C53.7522 24.9895 54.4986 25.4873 55.319 25.8252C56.1393 26.1631 57.0176 26.3346 57.9036 26.3299C60.3657 26.3299 62.5405 25.0981 63.7214 23.0319L63.8257 22.8492L61.893 21.5836L61.7749 21.7823C61.3706 22.4505 60.8012 23.0013 60.1225 23.3805C59.4439 23.7598 58.6792 23.9546 57.9036 23.9458C56.9035 23.9532 55.9329 23.6048 55.1619 22.9618C54.391 22.3187 53.8691 21.4221 53.6878 20.4293H64.2194L64.243 20.2307C64.3735 19.2997 64.3042 18.3513 64.0397 17.4497C63.7751 16.5482 63.3216 15.7146 62.7098 15.0056C62.0876 14.3054 61.325 13.7467 60.4726 13.3665C59.6203 12.9863 58.6976 12.7933 57.7658 12.8004ZM57.7658 15.1586C59.9445 15.1586 61.4108 16.6546 61.6608 18.1764H53.7882C54.3215 16.3069 55.8193 15.1586 57.7658 15.1586Z" fill="white"/>
<path d="M73.3555 15.1864C74.1242 15.1781 74.8811 15.3781 75.5471 15.7657C76.2132 16.1532 76.764 16.714 77.1422 17.3897L77.2564 17.5883L79.3072 16.2652L79.2029 16.0804C78.022 14.0162 75.8354 12.7825 73.3555 12.7825C69.5688 12.7825 66.6028 15.7526 66.6028 19.5373C66.6028 23.322 69.5688 26.2921 73.3555 26.2921C75.8354 26.2921 78.02 25.0604 79.2029 22.9942L79.3072 22.8114L77.2564 21.4863L77.1422 21.6949C76.7703 22.3795 76.2222 22.9501 75.5557 23.3463C74.8892 23.7425 74.129 23.9496 73.3555 23.9458C70.9307 23.9458 69.1023 22.0644 69.1023 19.575C69.1023 17.0857 70.9307 15.1864 73.3555 15.1864Z" fill="white"/>
<path d="M88.0397 12.8004C84.253 12.8004 81.3972 15.7089 81.3972 19.5552C81.4113 21.3578 82.1329 23.0813 83.404 24.3475C84.675 25.6138 86.3917 26.3196 88.1775 26.31C90.6396 26.31 92.8145 25.0783 93.9953 23.0121L94.1016 22.8293L92.1669 21.5638L92.0488 21.7625C91.6474 22.4348 91.0791 22.9898 90.4002 23.3727C89.7213 23.7556 88.9552 23.9532 88.1775 23.9459C87.1776 23.9529 86.2071 23.6043 85.4362 22.9613C84.6654 22.3184 84.1434 21.422 83.9617 20.4294H94.4933L94.5189 20.2307C94.65 19.2986 94.5808 18.349 94.3159 17.4464C94.051 16.5437 93.5967 15.7092 92.9837 14.9997C92.3609 14.3006 91.5981 13.743 90.7458 13.3638C89.8935 12.9847 88.9711 12.7926 88.0397 12.8004ZM88.0397 15.1586C90.2185 15.1586 91.6847 16.6546 91.9347 18.1764H84.0798C84.5955 16.3069 86.0952 15.1586 88.0397 15.1586Z" fill="white"/>
<path d="M103.685 12.8004C101.972 12.8004 100.634 13.5653 99.8979 14.4315V13.1064H97.6995V26.02H100.061V18.7804C100.061 16.6288 101.415 15.1249 103.354 15.1249C105.222 15.1249 106.428 16.4083 106.428 18.393V26.0141H108.79V17.9857C108.792 14.9322 106.692 12.8004 103.685 12.8004Z" fill="white"/>
<path d="M115.818 10.0587H114.005V10.3369C114.005 12.3434 113.094 13.4937 111.508 13.4937H111.24V15.3533H113.464V21.4744C113.464 24.4068 115.198 26.159 118.103 26.159H119.697V23.9121H118.241C116.062 23.9121 115.826 22.2075 115.826 21.4744V15.3533H119.697V13.1063H115.818V10.0587Z" fill="white"/>
<path d="M125.017 14.4851V13.1064H122.815V26.02H125.177V18.8976C125.177 16.6606 126.523 15.2143 128.605 15.2143H129.678V12.8004H128.605C127.127 12.8004 125.779 13.454 125.017 14.4851Z" fill="white"/>
<path d="M137.501 12.8004C135.057 12.8004 133.211 14.0103 132.302 16.2076L132.231 16.3785L134.122 17.6281L134.221 17.3718C134.614 16.3487 135.502 15.1308 137.501 15.1308C139.501 15.1308 140.436 16.297 140.436 17.1175C140.436 17.7891 139.942 18.2241 139.174 18.2241H136.21C133.64 18.2241 131.845 19.8135 131.845 22.0764C131.845 24.5339 133.959 26.316 136.87 26.316C138.631 26.316 139.985 25.5015 140.684 24.6949V26.0121H142.882V17.652C142.882 14.8408 140.619 12.8004 137.501 12.8004ZM136.87 23.9955C135.36 23.9955 134.346 23.2267 134.346 22.0843C134.346 21.091 135.134 20.3956 136.238 20.3956H140.519C140.495 22.6168 139.102 23.9955 136.87 23.9955Z" fill="white"/>
<path d="M148.921 21.6691V6.17273H146.559V21.6691C146.559 24.5578 148.133 26.2147 150.889 26.2147H151.282V23.8843H151.062C149.68 23.8843 148.921 23.0975 148.921 21.6691Z" fill="white"/>
<path d="M159.102 12.8004C156.657 12.8004 154.811 14.0103 153.902 16.2076L153.831 16.3785L155.72 17.6281L155.821 17.3718C156.214 16.3487 157.1 15.1308 159.1 15.1308C161.099 15.1308 162.036 16.297 162.036 17.1175C162.036 17.7891 161.54 18.2241 160.775 18.2241H157.813C155.242 18.2241 153.447 19.8135 153.447 22.0764C153.447 24.5419 155.559 26.3299 158.476 26.3299C160.237 26.3299 161.591 25.5154 162.29 24.7088V26.026H164.489V17.652C164.483 14.8408 162.215 12.8004 159.102 12.8004ZM158.476 23.9955C156.966 23.9955 155.953 23.2267 155.953 22.0843C155.953 21.091 156.74 20.3956 157.846 20.3956H162.127C162.097 22.6168 160.702 23.9955 158.476 23.9955Z" fill="white"/>
<path d="M174.912 12.8004C173.33 12.7911 171.807 13.399 170.659 14.4971V6.17871H168.297V26.02H170.659V24.6492C171.812 25.7361 173.334 26.3373 174.912 26.33C178.762 26.33 181.665 23.4353 181.665 19.597C181.665 15.7209 178.762 12.8004 174.912 12.8004ZM174.912 23.9399C172.487 23.9399 170.659 22.0704 170.659 19.591C170.659 17.0798 172.487 15.1865 174.912 15.1865C177.337 15.1865 179.165 17.0798 179.165 19.591C179.165 22.0704 177.337 23.9459 174.912 23.9459V23.9399Z" fill="white"/>
</g>
<defs>
<linearGradient id="paint0_linear_247_156" x1="0.333252" y1="15.999" x2="13.1774" y2="15.999" gradientUnits="userSpaceOnUse">
<stop stop-color="#2AD8FF"/>
<stop offset="1" stop-color="#00E991"/>
</linearGradient>
<linearGradient id="paint1_linear_247_156" x1="0.333255" y1="16.0248" x2="23.3252" y2="16.0248" gradientUnits="userSpaceOnUse">
<stop stop-color="#2AD8FF"/>
<stop offset="1" stop-color="#3F81FF"/>
</linearGradient>
<clipPath id="clip0_247_156">
<rect width="181.333" height="32" fill="white" transform="translate(0.333252)"/>
</clipPath>
</defs>
</svg>
